<svg width="43" height="62" viewBox="0 0 43 62" fill="none" xmlns="http://www.w3.org/2000/svg">
<path d="M40.624 1.52261C39.8447 0.688207 38.7974 0.605501 37.8915 1.30648C36.4213 2.44375 31.9476 5.90412 25.0247 3.65507C19.437 1.83957 15.0684 1.44796 11.6689 2.45714C8.44568 3.41429 6.12103 5.67579 4.75544 9.18213C1.31948 11.5055 -0.235694 15.2196 0.255446 19.9443C0.638048 23.6258 2.18054 27.1661 3.38499 29.0791C3.64662 29.4945 4.19522 29.619 4.61053 29.3577C4.87855 29.189 5.02465 28.9006 5.02489 28.6056H33.6479C33.6482 28.9006 33.7943 29.189 34.0623 29.3577C34.2093 29.4504 34.3731 29.4944 34.5349 29.4944C34.8301 29.4944 35.1189 29.3474 35.2877 29.0791C36.5698 27.0428 38.3632 22.113 38.4451 17.3671C41.1066 14.2172 41.8114 10.4617 41.9935 8.4719C42.2717 5.43857 41.7339 2.71094 40.624 1.52261Z" fill="#3D5868"/>
<path d="M40.6242 1.52261C39.8449 0.688207 38.7976 0.605501 37.8917 1.30648C37.6675 1.47984 37.3732 1.70745 37.0112 1.96043C37.8888 3.30398 38.2904 5.76584 38.0428 8.4719C37.8607 10.4618 37.1558 14.2172 34.4944 17.3671C34.4182 21.7789 32.8632 26.3481 31.6147 28.6056H33.6485C33.6487 28.9006 33.7948 29.189 34.0629 29.3577C34.2099 29.4504 34.3737 29.4944 34.5355 29.4944C34.8307 29.4944 35.1194 29.3474 35.2883 29.0791C36.5703 27.0428 38.3638 22.113 38.4457 17.3671C41.1072 14.2172 41.812 10.4617 41.9941 8.4719C42.2719 5.43857 41.7341 2.71094 40.6242 1.52261Z" fill="#2A434F"/>
<path d="M25.9302 43.0095H13.3877C7.97408 43.0095 3.56982 47.4138 3.56982 52.8275V60.6113C3.56982 61.1021 3.96759 61.5 4.4585 61.5H34.8597C35.3506 61.5 35.7484 61.1021 35.7484 60.6113V52.8274C35.7483 47.4137 31.3439 43.0095 25.9302 43.0095Z" fill="#F0EEEE"/>
<path d="M25.9305 43.0095H22.9387C28.3524 43.0095 32.7566 47.4138 32.7566 52.8275V60.6113C32.7566 61.1021 32.3589 61.5 31.868 61.5H34.8597C35.3506 61.5 35.7484 61.1021 35.7484 60.6113V52.8274C35.7485 47.4137 31.3441 43.0095 25.9305 43.0095Z" fill="#D9D4D4"/>
<path d="M24.6468 43.8975H14.6714V61.4999H24.6468V43.8975Z" fill="#49B6F2"/>
<path d="M19.6592 44.7792V49.1436L24.647 52.6136V43.898L19.6592 44.7792Z" fill="#68C8FC"/>
<path d="M14.6714 52.6135L19.6592 49.1435V44.7791L14.6714 43.8979V52.6135Z" fill="#68C8FC"/>
<path d="M29.8141 53.3541C29.3232 53.3541 28.9254 52.9562 28.9254 52.4654V48.18C28.9254 43.231 24.8993 39.2047 19.9503 39.2047C15.0014 39.2047 10.9751 43.2309 10.9751 48.18V51.8706C10.9751 52.3613 10.5773 52.7592 10.0864 52.7592C9.59552 52.7592 9.19775 52.3613 9.19775 51.8706V48.18C9.19775 42.251 14.0212 37.4274 19.9502 37.4274C25.8792 37.4274 30.7028 42.251 30.7028 48.18V52.4654C30.7028 52.9562 30.3049 53.3541 29.8141 53.3541Z" fill="#19303F"/>
<path d="M14.6711 32.5572V43.3002C14.6711 46.0548 16.9043 48.288 19.659 48.288C22.4137 48.288 24.6468 46.0548 24.6468 43.3002V32.5572H14.6711Z" fill="#FA9E3E"/>
<path d="M4.23678 27.3745H10.0864V34.0821H4.23678C2.38456 34.0821 0.883057 32.5806 0.883057 30.7284C0.883057 28.8762 2.38444 27.3745 4.23678 27.3745Z" fill="#FA9E3E"/>
<path d="M35.0813 27.3747H29.2317V34.0822H35.0813C36.9335 34.0822 38.435 32.5807 38.435 30.7285C38.435 28.8763 36.9335 27.3747 35.0813 27.3747Z" fill="#FA9E3E"/>
<path d="M32.9429 20.5198V28.0231C32.9429 35.3652 27.0472 41.426 19.7052 41.4508C12.3474 41.4757 6.37573 35.5182 6.37573 28.1673V22.9776C6.37573 22.8724 6.43865 22.7785 6.53439 22.7348C9.74866 21.2668 10.8212 17.458 11.1045 14.7308C11.165 14.1426 11.1887 13.6049 11.1895 13.1518C11.19 12.9073 11.4916 12.7938 11.6544 12.9761C12.0289 13.3956 12.6109 14.016 13.3724 14.7307C16.8833 18.0289 24.2097 23.3432 32.5868 20.2693C32.7597 20.2059 32.9429 20.3355 32.9429 20.5198Z" fill="#FFB56B"/>
<path d="M19.6591 35.0164C18.0603 35.0164 16.5616 34.2307 15.6503 32.9145C15.3709 32.511 15.4715 31.9574 15.875 31.6779C16.2782 31.3985 16.8321 31.4991 17.1115 31.9026C17.6911 32.7395 18.6434 33.239 19.6592 33.239C20.675 33.239 21.6273 32.7395 22.2068 31.9026C22.4862 31.4991 23.0397 31.3985 23.4433 31.6779C23.8467 31.9573 23.9474 32.5109 23.668 32.9145C22.7564 34.2307 21.2578 35.0164 19.6591 35.0164Z" fill="#19303F"/>
<path d="M30.1786 29.5491C30.1786 35.8975 25.2082 41.0843 18.9468 41.4317H18.947C19.0642 41.4379 19.1819 41.4426 19.2998 41.4458C19.3005 41.4458 19.3012 41.446 19.302 41.446C19.4207 41.4492 19.5398 41.4508 19.6593 41.4508C19.9959 41.4508 20.3296 41.438 20.6599 41.4135C20.677 41.4122 20.6941 41.4108 20.7112 41.4095C20.9131 41.3936 21.1137 41.3732 21.313 41.3484C27.8692 40.5342 32.9428 34.9428 32.9428 28.1672V20.1337C32.0075 20.5023 31.0848 20.7653 30.1786 20.9369V29.549V29.5491Z" fill="#EF9245"/>
<path d="M26.0957 28.4376C25.6048 28.4376 25.207 28.0397 25.207 27.5489V27.312C25.207 26.8212 25.6048 26.4233 26.0957 26.4233C26.5866 26.4233 26.9844 26.8212 26.9844 27.312V27.5489C26.9844 28.0397 26.5866 28.4376 26.0957 28.4376Z" fill="#19303F"/>
<path d="M13.2227 28.4375C12.7318 28.4375 12.334 28.0396 12.334 27.5488V27.3119C12.334 26.8211 12.7318 26.4232 13.2227 26.4232C13.7136 26.4232 14.1113 26.8211 14.1113 27.3119V27.5488C14.1113 28.0396 13.7134 28.4375 13.2227 28.4375Z" fill="#19303F"/>
<path d="M10.0865 50.9819C8.65186 50.9819 7.48462 52.1491 7.48462 53.5837C7.48462 55.0182 8.65186 56.1855 10.0865 56.1855C11.5212 56.1855 12.6884 55.0182 12.6884 53.5837C12.6883 52.1491 11.5211 50.9819 10.0865 50.9819Z" fill="#78D6D1"/>
<path d="M19.6592 49.1435L16.9893 51.0008C17.663 51.7022 18.6097 52.1395 19.6592 52.1395C20.7086 52.1395 21.6553 51.7023 22.3291 51.0008L19.6592 49.1435Z" fill="#304A56"/>
<path d="M19.6593 52.1394C19.2716 52.1394 18.898 52.0793 18.547 51.9688L17.3191 61.4998H21.9993L20.7714 51.9688C20.4204 52.0793 20.047 52.1394 19.6593 52.1394Z" fill="#3D5868"/>
<path d="M32.1699 59.0169H31.7387C31.2478 59.0169 30.85 58.619 30.85 58.1282C30.85 57.8048 31.0228 57.5217 31.2812 57.3662V54.8207C31.2812 54.0118 30.6231 53.3538 29.8142 53.3538C29.0053 53.3538 28.3472 54.0119 28.3472 54.8207V57.3662C28.6056 57.5217 28.7783 57.8048 28.7783 58.1282C28.7783 58.619 28.3806 59.0169 27.8897 59.0169H27.4585C26.9676 59.0169 26.5698 58.619 26.5698 58.1282V54.8208C26.5698 53.0319 28.0252 51.5767 29.8141 51.5767C31.603 51.5767 33.0583 53.0321 33.0583 54.8208V58.1282C33.0584 58.619 32.6605 59.0169 32.1699 59.0169Z" fill="#3D5868"/>
</svg>
