<svg width="230" height="230" viewBox="0 0 230 230" fill="none" xmlns="http://www.w3.org/2000/svg">
<rect width="230" height="230" rx="30" fill="#4FC1F7"/>
<path d="M100.38 52.48C103.467 41.4746 113.196 37.348 116.175 54.4002C116.745 59.8033 117.401 65.2391 115.673 69.7619C110.502 82.8769 98.7603 82.6306 97.8724 69.0418C97.3672 63.0077 98.5308 57.6127 100.38 52.48V52.48Z" fill="white"/>
<path d="M143.503 65.2015C147.725 50.5507 159.842 52.3483 164.564 69.762C165.894 77.6712 165.231 84.732 163.561 91.3643C157.379 102.127 142.552 96.7612 142.124 87.6439C141.9 80.2722 141.761 72.8869 143.503 65.2015Z" fill="white"/>
<path d="M185.373 107.206C192.871 97.9328 202.95 94.685 200.918 116.567C199.755 121.21 199.134 124.73 195.652 129.769C192.16 135.843 178.615 140.55 180.108 121.848C180.211 116.374 182.632 111.733 185.373 107.206Z" fill="white"/>
<path d="M126.571 112.809C124.312 112.871 122.129 114.143 120.061 117.047C119.389 117.815 118.579 118.723 117.669 119.672C120.431 118.164 123.526 117.371 126.673 117.365C129.448 117.368 132.189 117.983 134.699 119.166C137.209 120.349 139.428 122.072 141.197 124.21C136.232 117.726 131.24 112.679 126.571 112.809V112.809ZM111.706 124.777C110.04 125.864 108.252 126.726 106.397 127.128C91.5814 132.623 76.2105 162.479 105.645 159.291C108.358 158.883 113.745 159.384 120.391 160.51L121.367 154.344C117.453 153.197 114.015 150.814 111.569 147.551C109.123 144.287 107.799 140.319 107.797 136.241C107.805 132.094 109.179 128.065 111.706 124.777V124.777ZM142.116 125.426C144.342 128.594 145.54 132.369 145.548 136.241C145.544 140.44 144.14 144.519 141.558 147.831C138.976 151.142 135.363 153.498 131.291 154.526L130.047 162.399C136.125 163.726 142.61 165.375 148.768 167.212C178.244 178.855 176.382 159.581 160.051 148.97C154.625 144.245 148.409 133.861 142.116 125.426V125.426Z" fill="white"/>
<path d="M70.7139 78.6631C68.403 78.6549 65.8954 81.5589 63.2736 89.4442C62.5448 94.3991 62.1182 99.2819 64.0257 103.606C64.0839 103.827 64.148 104.041 64.2151 104.251C70.6367 101.6 75.65 97.11 79.303 90.8441C77.0332 84.8756 74.0839 78.6742 70.7139 78.6631V78.6631ZM79.8802 105.894C78.0395 107.965 76.0392 109.536 73.8398 110.623C76.335 110.159 78.6342 108.535 79.8802 105.894Z" fill="white" stroke="white" stroke-width="0.4181"/>
<path d="M46.2231 28L46.9242 34.5803L34.3225 36.1347L39.8399 82.0628C46.6736 117.408 79.7162 112.886 84.3799 80.9378L89.4524 37.0393L76.7971 35.4741L77.5252 28.9046L93.8695 30.9301L88.1071 81.2049C84.4415 102.914 71.9973 110.212 64.5794 110.67C61.5679 140.537 38.0907 141.514 33.8805 152.695C24.3785 180.507 47.4161 201.404 78.044 198.263C79.9856 198.064 91.6189 197.512 103.121 192.377C114.51 187.292 122.555 181.72 124.315 149.606C122.128 149.078 119.973 148.034 118.11 146.226C116.515 144.693 115.405 142.896 114.792 140.961C114.141 139.319 113.68 137.686 114.16 134C114.603 131.377 115.729 128.396 118.802 125.684C120.623 124.102 123.028 122.892 126.742 122.632C130.13 122.617 132.775 123.775 135.018 125.569C136.526 126.74 137.626 128.095 138.352 129.619C139.346 131.564 140.214 133.638 139.976 136.823C139.867 139.956 138.841 142.963 136.638 145.367C134.469 147.953 131.508 149.525 128.056 149.839C127.158 182.064 117.904 198.171 78.2509 201.977C39.6192 205.547 21.212 177.451 30.2771 151.697C34.3781 138.976 59.9058 136.048 60.7506 110.673C46.4623 109.489 37.9525 95.2958 36.1061 82.357L29.8504 30.0199L46.2231 28Z" fill="white" stroke="black" stroke-width="0.0150036"/>
</svg>
