<svg width="72" height="28" viewBox="0 0 72 28" fill="none" xmlns="http://www.w3.org/2000/svg">
<path d="M34.3945 22H32.1445V4.9375H34.3945V22ZM40.2305 9.32031L40.3008 10.9141C41.2695 9.69531 42.5352 9.08594 44.0977 9.08594C46.7773 9.08594 48.1289 10.5977 48.1523 13.6211V22H45.9844V13.6094C45.9766 12.6953 45.7656 12.0195 45.3516 11.582C44.9453 11.1445 44.3086 10.9258 43.4414 10.9258C42.7383 10.9258 42.1211 11.1133 41.5898 11.4883C41.0586 11.8633 40.6445 12.3555 40.3477 12.9648V22H38.1797V9.32031H40.2305ZM52.4883 22V10.9961H50.4844V9.32031H52.4883V8.01953C52.4883 6.66016 52.8516 5.60937 53.5781 4.86719C54.3047 4.125 55.332 3.75391 56.6602 3.75391C57.1602 3.75391 57.6562 3.82031 58.1484 3.95312L58.0312 5.71094C57.6641 5.64062 57.2734 5.60547 56.8594 5.60547C56.1562 5.60547 55.6133 5.8125 55.2305 6.22656C54.8477 6.63281 54.6562 7.21875 54.6562 7.98438V9.32031H57.3633V10.9961H54.6562V22H52.4883ZM59.1914 15.543C59.1914 14.3008 59.4336 13.1836 59.918 12.1914C60.4102 11.1992 61.0898 10.4336 61.957 9.89453C62.832 9.35547 63.8281 9.08594 64.9453 9.08594C66.6719 9.08594 68.0664 9.68359 69.1289 10.8789C70.1992 12.0742 70.7344 13.6641 70.7344 15.6484V15.8008C70.7344 17.0352 70.4961 18.1445 70.0195 19.1289C69.5508 20.1055 68.875 20.8672 67.9922 21.4141C67.1172 21.9609 66.1094 22.2344 64.9688 22.2344C63.25 22.2344 61.8555 21.6367 60.7852 20.4414C59.7227 19.2461 59.1914 17.6641 59.1914 15.6953V15.543ZM61.3711 15.8008C61.3711 17.207 61.6953 18.3359 62.3438 19.1875C63 20.0391 63.875 20.4648 64.9688 20.4648C66.0703 20.4648 66.9453 20.0352 67.5938 19.1758C68.2422 18.3086 68.5664 17.0977 68.5664 15.543C68.5664 14.1523 68.2344 13.0273 67.5703 12.168C66.9141 11.3008 66.0391 10.8672 64.9453 10.8672C63.875 10.8672 63.0117 11.293 62.3555 12.1445C61.6992 12.9961 61.3711 14.2148 61.3711 15.8008Z" fill="white"/>
<circle cx="10" cy="14" r="9.5" stroke="white"/>
<path d="M10.0938 10.3203C9.79688 10.3203 9.54167 10.224 9.32812 10.0312C9.11979 9.83854 9.01562 9.59375 9.01562 9.29688C9.01562 9 9.11979 8.7526 9.32812 8.55469C9.54167 8.35677 9.79688 8.25781 10.0938 8.25781C10.401 8.25781 10.6615 8.35677 10.875 8.55469C11.0885 8.7526 11.1953 9 11.1953 9.29688C11.1953 9.57812 11.0885 9.82031 10.875 10.0234C10.6615 10.2214 10.401 10.3203 10.0938 10.3203ZM10.9922 20H9.17969V12H10.9922V20Z" fill="white"/>
</svg>
