<svg width="62" height="62" viewBox="0 0 62 62" fill="none" xmlns="http://www.w3.org/2000/svg">
<path d="M51.5754 61.3333H10.4247C5.03592 61.3333 0.666748 56.9642 0.666748 51.5753V10.4247C0.666748 5.03584 5.03592 0.666672 10.4247 0.666672H51.5754C56.9643 0.666672 61.3334 5.03584 61.3334 10.4247V51.5753C61.3334 56.9642 56.9643 61.3333 51.5754 61.3333Z" fill="#6BCFFF"/>
<path d="M52.0002 17H31.0002C30.3562 17 29.8335 16.4785 29.8335 15.8333C29.8335 15.1882 30.3562 14.6667 31.0002 14.6667H52.0002C52.6442 14.6667 53.1668 15.1882 53.1668 15.8333C53.1668 16.4785 52.6442 17 52.0002 17Z" fill="white"/>
<path d="M52.0002 33.3333H31.0002C30.3562 33.3333 29.8335 32.8118 29.8335 32.1667C29.8335 31.5215 30.3562 31 31.0002 31H52.0002C52.6442 31 53.1668 31.5215 53.1668 32.1667C53.1668 32.8118 52.6442 33.3333 52.0002 33.3333Z" fill="white"/>
<path d="M52.0002 49.6667H31.0002C30.3562 49.6667 29.8335 49.1452 29.8335 48.5C29.8335 47.8548 30.3562 47.3333 31.0002 47.3333H52.0002C52.6442 47.3333 53.1668 47.8548 53.1668 48.5C53.1668 49.1452 52.6442 49.6667 52.0002 49.6667Z" fill="white"/>
<path d="M14.7494 20.5C14.5056 20.5 14.2594 20.4242 14.0494 20.2667L8.71661 16.2662C8.20094 15.88 8.09711 15.1485 8.48328 14.634C8.86944 14.1195 9.60094 14.0145 10.1166 14.4007L14.5756 17.7443L21.8649 9.24167C22.2838 8.75167 23.0211 8.69567 23.5099 9.11567C23.9988 9.53451 24.0559 10.2707 23.6359 10.7595L15.6361 20.0928C15.4051 20.3612 15.0784 20.5 14.7494 20.5Z" fill="white"/>
<path d="M14.7494 36.8333C14.5056 36.8333 14.2594 36.7575 14.0494 36.6L8.71661 32.5995C8.20094 32.2133 8.09711 31.4818 8.48328 30.9673C8.86944 30.4528 9.60094 30.3478 10.1166 30.734L14.5756 34.0777L21.8649 25.575C22.2838 25.085 23.0211 25.029 23.5099 25.449C23.9988 25.8678 24.0559 26.604 23.6359 27.0928L15.6361 36.4262C15.4051 36.6945 15.0784 36.8333 14.7494 36.8333Z" fill="white"/>
<path d="M14.7494 54.3322C14.5056 54.3322 14.2594 54.2563 14.0494 54.0988L8.71661 50.0983C8.20094 49.7122 8.09711 48.9807 8.48328 48.4662C8.86944 47.9517 9.60094 47.8467 10.1166 48.2328L14.5756 51.5765L21.8649 43.075C22.2838 42.5838 23.0211 42.5278 23.5099 42.949C23.9988 43.3678 24.0559 44.104 23.6359 44.5928L15.6361 53.925C15.4051 54.1933 15.0784 54.3322 14.7494 54.3322Z" fill="white"/>
</svg>
